name C:\Users\Nicos\Desktop\Gil_twoSteps\Study2\ExperimentalData\IK_Splined\twoSteps_IK_BSplines_140_meshInts_study2_p02_s_01_lowIK_modROI.mot
datacolumns 38
datarows 15
range 0.43700000 0.44835141
endheader
                time	         pelvis_tilt	         pelvis_list	     pelvis_rotation	           pelvis_tx	           pelvis_ty	           pelvis_tz	       hip_flexion_r	     hip_adduction_r	      hip_rotation_r	        knee_angle_r	       ankle_angle_r	    subtalar_angle_r	         mtp_angle_r	       hip_flexion_l	     hip_adduction_l	      hip_rotation_l	        knee_angle_l	       ankle_angle_l	    subtalar_angle_l	         mtp_angle_l	    lumbar_extension	      lumbar_bending	     lumbar_rotation	          arm_flex_r	           arm_add_r	           arm_rot_r	        elbow_flex_r	           pro_sup_r	        wrist_flex_r	         wrist_dev_r	          arm_flex_l	           arm_add_l	           arm_rot_l	        elbow_flex_l	           pro_sup_l	        wrist_flex_l	         wrist_dev_l	
          0.43700000	        -21.48194829	          1.41045211	        -11.35948644	         -0.86224355	          0.85365717	          0.34101508	         25.49614806	          1.61829586	         10.78076814	        -56.88403360	         18.80754428	        -16.01806630	         12.54710737	         53.38484520	         -3.63307535	        -14.77320317	       -110.55592188	         -5.96557735	        -14.42567730	         10.20159505	        -25.62851557	         -3.42899195	         -6.77735193	         32.74119499	          1.27016103	          9.83348874	         81.57566193	         71.96231274	         -5.49884384	         10.71071908	        -43.70800395	         -9.82119132	        -17.01266795	         37.22848878	         71.14469645	        -10.39508284	         19.42633791	
          0.43748287	        -21.46181008	          1.48394156	        -11.42264075	         -0.86011409	          0.85359471	          0.34113899	         25.29651694	          1.50530213	         10.81894342	        -56.75138969	         18.75278477	        -15.96639919	         12.66188823	         53.71900342	         -3.59132490	        -14.74122159	       -110.68676396	         -5.85021013	        -14.44283292	         10.18655135	        -25.59487395	         -3.56904529	         -6.77864134	         33.16146999	          1.41003374	          9.91504326	         81.74746066	         71.95264385	         -5.51214150	         10.71499268	        -44.10773322	         -9.76908670	        -17.06063833	         37.33327688	         71.35478135	        -10.34632407	         19.49423064	
          0.43900856	        -21.39846615	          1.71641300	        -11.62158058	         -0.85338459	          0.85339648	          0.34152957	         24.66575957	          1.14747350	         10.93905949	        -56.33152361	         18.57973294	        -15.80246700	         13.02493572	         54.77512586	         -3.45892461	        -14.63992320	       -111.09914378	         -5.48632085	        -14.49788262	         10.13809906	        -25.48796353	         -4.01160955	         -6.78224836	         34.48834937	          1.85079322	         10.17249255	         82.29142240	         71.92206438	         -5.55422559	         10.72845030	        -45.37074706	         -9.60454584	        -17.21213851	         37.66577252	         72.01838398	        -10.19207428	         19.70841705	
          0.44011429	        -21.36332126	          1.89528572	        -11.74299625	         -0.84845917	          0.85321948	          0.34177751	         24.20845089	          0.85733502	         11.00711942	        -55.99828064	         18.45302310	        -15.65774541	         13.30268064	         55.55260258	         -3.34459283	        -14.55706795	       -111.35914949	         -5.24619294	        -14.56973357	         10.06817920	        -25.38716133	         -4.33435490	         -6.76720305	         35.41149931	          2.12556280	         10.35039123	         82.72906542	         71.89877809	         -5.58733283	         10.73649315	        -46.28734022	         -9.48864170	        -17.31941737	         37.95999310	         72.49252278	        -10.07302323	         19.85128561	
          0.44011429	        -21.36332126	          1.89528572	        -11.74299625	         -0.84845917	          0.85321948	          0.34177751	         24.20845089	          0.85733502	         11.00711942	        -55.99828064	         18.45302310	        -15.65774541	         13.30268064	         55.55260258	         -3.34459283	        -14.55706795	       -111.35914949	         -5.24619294	        -14.56973357	         10.06817920	        -25.38716133	         -4.33435490	         -6.76720305	         35.41149931	          2.12556280	         10.35039123	         82.72906542	         71.89877809	         -5.58733283	         10.73649315	        -46.28734022	         -9.48864170	        -17.31941737	         37.95999310	         72.49252278	        -10.07302323	         19.85128561	
          0.44059716	        -21.34797346	          1.97339956	        -11.79601855	         -0.84630823	          0.85314218	          0.34188579	         24.00874388	          0.73063134	         11.03684123	        -55.85275320	         18.39768882	        -15.59454539	         13.42397204	         55.89212720	         -3.29466407	        -14.52088501	       -111.47269417	         -5.14132892	        -14.60111093	         10.03764515	        -25.34314094	         -4.47529801	         -6.76063276	         35.81463951	          2.24555486	         10.42807970	         82.92018443	         71.88860895	         -5.60179078	         10.74000546	        -46.68761708	         -9.43802628	        -17.36626613	         38.08847943	         72.69957952	        -10.02103356	         19.91367641	
          0.44212284	        -21.29948068	          2.22020741	        -11.96354739	         -0.83951215	          0.85289795	          0.34222790	         23.37775124	          0.33029945	         11.13075003	        -55.39294591	         18.22285510	        -15.39485913	         13.80720334	         56.96488640	         -3.13690955	        -14.40656168	       -111.83144899	         -4.81000141	        -14.70025058	          9.94117002	        -25.20405448	         -4.92062072	         -6.73987331	         37.08839800	          2.62468080	         10.67354356	         83.52404248	         71.85647862	         -5.64747201	         10.75110295	        -47.95232857	         -9.27810221	        -17.51428907	         38.49444378	         73.35379429	         -9.85676741	         20.11080588	
          0.44322857	        -21.27356548	          2.40829009	        -12.06396091	         -0.83453253	          0.85269032	          0.34244309	         22.91802674	          0.01358471	         11.18131888	        -55.03064664	         18.09014292	        -15.22779189	         14.09774206	         57.74917518	         -3.00697395	        -14.31742421	       -112.05281508	         -4.58973762	        -14.79462656	          9.85760244	        -25.08319945	         -5.24523134	         -6.71008353	         37.98035934	          2.84813983	         10.85734098	         84.00065350	         71.82278529	         -5.68539090	         10.75702202	        -48.86824929	         -9.16382010	        -17.63920640	         38.82953783	         73.79792639	         -9.72999927	         20.24140883	
          0.44322857	        -21.27356548	          2.40829009	        -12.06396091	         -0.83453253	          0.85269032	          0.34244309	         22.91802674	          0.01358471	         11.18131888	        -55.03064664	         18.09014292	        -15.22779189	         14.09774206	         57.74917518	         -3.00697395	        -14.31742421	       -112.05281508	         -4.58973762	        -14.79462656	          9.85760244	        -25.08319945	         -5.24523134	         -6.71008353	         37.98035934	          2.84813983	         10.85734098	         84.00065350	         71.82278529	         -5.68539090	         10.75702202	        -48.86824929	         -9.16382010	        -17.63920640	         38.82953783	         73.79792639	         -9.72999927	         20.24140883	
          0.44371144	        -21.26244581	          2.49062302	        -12.10736209	         -0.83235676	          0.85259899	          0.34253637	         22.71721304	         -0.12529359	         11.20302801	        -54.87180847	         18.03205897	        -15.15435529	         14.22489431	         58.09182040	         -2.94989705	        -14.27836338	       -112.14865889	         -4.49397337	        -14.83632268	          9.82081634	        -25.02999284	         -5.38702893	         -6.69675876	         38.36921200	          2.94462646	         10.93773168	         84.20962380	         71.80784867	         -5.70205308	         10.75956143	        -49.26821811	         -9.11394774	        -17.69413536	         38.97674835	         73.99123702	         -9.67447438	         20.29818074	
          0.44523713	        -21.22731222	          2.75076148	        -12.24449213	         -0.82548224	          0.85231042	          0.34283108	         22.08272371	         -0.56409231	         11.27161999	        -54.36994470	         17.84853738	        -14.92232563	         14.62664352	         59.17443946	         -2.76955735	        -14.15494709	       -112.45148619	         -4.19139746	        -14.96806537	          9.70458730	        -24.86188164	         -5.83505145	         -6.65465795	         39.59782769	          3.24948481	         11.19173346	         84.86988466	         71.76065504	         -5.75469878	         10.76758494	        -50.53195630	         -8.95637144	        -17.86768846	         39.44187352	         74.60201969	         -9.49903841	         20.47755679	
          0.44634286	        -21.20846344	          2.94761342	        -12.32566081	         -0.82044362	          0.85207608	          0.34301472	         21.61797217	         -0.90473469	         11.30549839	        -53.97882319	         17.70539886	        -14.73515073	         14.93025337	         59.95996393	         -2.62640462	        -14.06330578	       -112.63462494	         -3.98697535	        -15.07816992	          9.61963307	        -24.72483736	         -6.16207907	         -6.61325024	         40.46513671	          3.41768439	         11.39236978	         85.38158898	         71.70482279	         -5.79978119	         10.77087012	        -51.44557225	         -8.84147799	        -18.02435100	         39.81111340	         74.99793409	         -9.36441573	         20.59633742	
          0.44634286	        -21.20846344	          2.94761342	        -12.32566081	         -0.82044362	          0.85207608	          0.34301472	         21.61797217	         -0.90473469	         11.30549839	        -53.97882319	         17.70539886	        -14.73515073	         14.93025337	         59.95996393	         -2.62640462	        -14.06330578	       -112.63462494	         -3.98697535	        -15.07816992	          9.61963307	        -24.72483736	         -6.16207907	         -6.61325024	         40.46513671	          3.41768439	         11.39236978	         85.38158898	         71.70482279	         -5.79978119	         10.77087012	        -51.44557225	         -8.84147799	        -18.02435100	         39.81111340	         74.99793409	         -9.36441573	         20.59633742	
          0.44682573	        -21.20062373	          3.03407122	        -12.36002886	         -0.81823992	          0.85197225	          0.34309314	         21.41472426	         -1.05483286	         11.31935579	        -53.80639817	         17.64229034	        -14.65228578	         15.06357669	         60.30305640	         -2.56315254	        -14.02315595	       -112.71245080	         -3.89858428	        -15.12711844	          9.58249100	        -24.66408981	         -6.30502993	         -6.59452246	         40.84252221	          3.48801475	         11.48096755	         85.60701508	         71.67916037	         -5.81987882	         10.77215499	        -51.84441446	         -8.79126305	        -18.09459378	         39.97426356	         75.16806274	         -9.30518332	         20.64754471	
          0.44835141	        -21.17585342	          3.30724258	        -12.46861788	         -0.81127713	          0.85164419	          0.34334093	         20.77254384	         -1.52908181	         11.36313949	        -53.26160551	         17.44289319	        -14.39046636	         15.48482397	         61.38708853	         -2.36330179	        -13.89629890	       -112.95834874	         -3.61930456	        -15.28177577	          9.46513723	        -24.47215232	         -6.75669630	         -6.53535032	         42.03490636	          3.71023001	         11.76090034	         86.31926954	         71.59807762	         -5.88337916	         10.77621467	        -53.10459306	         -8.63260433	        -18.31653230	         40.48975148	         75.70559985	         -9.11803306	         20.80933883	
